HIERARCHY
ROOT root
{
	OFFSET	0	13.1	24.9
	CHANNELS 6  Xposition Yposition Zposition Xrotation Yrotation Zrotation
	JOINT spine_1
	{
		OFFSET	0	9.99999	0
		CHANNELS 3  Xrotation Yrotation Zrotation
		JOINT spine_2
		{
			OFFSET	0	112	-10
			CHANNELS 3  Xrotation Yrotation Zrotation
			JOINT spine_3
			{
				OFFSET	0	206.5	19.3
				CHANNELS 3  Xrotation Yrotation Zrotation
				JOINT spine_4
				{
					OFFSET	0	110.4	14.6
					CHANNELS 3  Xrotation Yrotation Zrotation
					JOINT neck_1
					{
						OFFSET	0	71.8	-50.3
						CHANNELS 3  Xrotation Yrotation Zrotation
						JOINT neck_2
						{
							OFFSET	0	86.2	-25.8
							CHANNELS 3  Xrotation Yrotation Zrotation
							JOINT head_ee
							{
								OFFSET	0	179.8	-8.7
								CHANNELS 3  Xrotation Yrotation Zrotation
								End Site
								{
									OFFSET	1	0	0
								}
							}
						}
					}
					JOINT left_clavicle
					{
						OFFSET	-43.2	22.4	-70.8
						CHANNELS 3  Xrotation Yrotation Zrotation
						JOINT left_shoulder
						{
							OFFSET	-93.9	-5.79999	48.7
							CHANNELS 3  Xrotation Yrotation Zrotation
							JOINT left_elbow
							{
								OFFSET	-291.4	-30.8	15.2
								CHANNELS 3  Xrotation Yrotation Zrotation
								JOINT left_lowarm_twist
								{
									OFFSET	-110.7	-3.89999	13.6
									CHANNELS 3  Xrotation Yrotation Zrotation
									JOINT left_hand
									{
										OFFSET	-110.7	-3.89999	13.6
										CHANNELS 3  Xrotation Yrotation Zrotation
										JOINT left_ee
										{
											OFFSET	-80.8	-5.10001	12.1
											CHANNELS 3  Xrotation Yrotation Zrotation
											End Site
											{
												OFFSET	1	0	0
											}
										}
									}
								}
							}
						}
					}
					JOINT right_clavicle
					{
						OFFSET	43.2	22.4	-70.8
						CHANNELS 3  Xrotation Yrotation Zrotation
						JOINT right_shoulder
						{
							OFFSET	93.9	-5.79999	48.7
							CHANNELS 3  Xrotation Yrotation Zrotation
							JOINT right_elbow
							{
								OFFSET	291.4	-30.8	15.2
								CHANNELS 3  Xrotation Yrotation Zrotation
								JOINT right_lowarm_twist
								{
									OFFSET	110.7	-3.89999	13.6
									CHANNELS 3  Xrotation Yrotation Zrotation
									JOINT right_hand
									{
										OFFSET	110.7	-3.89999	13.6
										CHANNELS 3  Xrotation Yrotation Zrotation
										JOINT right_ee
										{
											OFFSET	80.8	-5.10001	12.1
											CHANNELS 3  Xrotation Yrotation Zrotation
											End Site
											{
												OFFSET	1	0	0
											}
										}
									}
								}
							}
						}
					}
				}
			}
		}
	}
	JOINT left_hip
	{
		OFFSET	-82.8	-127.5	0.300001
		CHANNELS 3  Xrotation Yrotation Zrotation
		JOINT left_knee
		{
			OFFSET	-28.2	-396.7	2.2
			CHANNELS 3  Xrotation Yrotation Zrotation
			JOINT left_ankle
			{
				OFFSET	-11.7	-411.3	35.4
				CHANNELS 3  Xrotation Yrotation Zrotation
				JOINT left_toes
				{
					OFFSET	0	-60	-88.6
					CHANNELS 3  Xrotation Yrotation Zrotation
					JOINT left_foot_ee
					{
						OFFSET	-22.5	-16.5	-42.2
						CHANNELS 3  Xrotation Yrotation Zrotation
						End Site
						{
							OFFSET	1	0	0
						}
					}
				}
			}
		}
	}
	JOINT right_hip
	{
		OFFSET	82.8	-127.5	0.300001
		CHANNELS 3  Xrotation Yrotation Zrotation
		JOINT right_knee
		{
			OFFSET	28.2	-396.7	2.2
			CHANNELS 3  Xrotation Yrotation Zrotation
			JOINT right_ankle
			{
				OFFSET	11.7	-411.3	35.4
				CHANNELS 3  Xrotation Yrotation Zrotation
				JOINT right_toes
				{
					OFFSET	0	-60	-88.6
					CHANNELS 3  Xrotation Yrotation Zrotation
					JOINT right_foot_ee
					{
						OFFSET	22.5	-16.5	-42.2
						CHANNELS 3  Xrotation Yrotation Zrotation
						End Site
						{
							OFFSET	1	0	0
						}
					}
				}
			}
		}
	}
}
MOTION
Frames: 11
Frame Time: 0.02
2039.47 707.984 -1566.26 5.20897 59.8218 -6.8108 -0.280621 0.539402 2.73264 -0.276541 0.364492 2.76139 -0.256308 -0.236485 2.77528 -0.266998 0.204612 2.77781 -8.42822 17.1625 -1.71024 -8.60886 33.3252 2.31768 -0.0 0.0 -0.0 -7.36191 21.9735 -7.98418 9.29732 -17.9094 63.0688 2.62707 -52.4517 1.29433 -9.09361 -0.407704 1.08753 0.182466 -5.19172 -0.970047 -0.0 0.0 -0.0 12.6462 23.6591 -25.1128 -18.5395 19.5607 -68.2887 0.258782 7.30524 -0.0165198 15.0271 -0.282627 1.89328 -1.32256 -8.80062 4.87911 0.0 0.0 0.0 2.45738 28.1669 -11.4286 -33.5143 -0.106506 5.06962 41.2397 13.3014 -5.01796 -30.7553 0.0 0.0 -0.0 0.0 -0.0 1.24267 32.7685 -5.84218 -19.3289 -0.303019 -2.93666 33.9762 -13.1452 4.33432 24.7059 -0.0 -0.0 0.0 0.0 0.0 
2031.83 709.848 -1568.01 5.24179 60.627 -7.24332 -0.234189 0.523886 2.72149 -0.230136 0.349716 2.74929 -0.210784 -0.246139 2.76048 -0.221365 0.192745 2.76472 -8.2257 17.6446 -1.62184 -8.39069 34.1464 2.45864 -0.0 0.0 -0.0 -7.27443 21.3382 -8.06387 7.61653 -18.1503 64.1346 2.64562 -52.6462 1.30905 -7.18318 -0.307775 0.864572 0.0941073 -4.42196 -1.2389 -0.0 0.0 -0.0 12.5918 24.2599 -24.9268 -17.5849 19.8867 -68.7725 0.353115 9.92217 -0.030652 14.8728 -0.282264 1.87358 -1.35951 -8.58643 5.21603 0.0 0.0 0.0 3.39444 27.9345 -10.9023 -33.3827 -0.100293 5.05038 40.0554 13.5559 -4.91741 -31.2302 0.0 0.0 -0.0 0.0 -0.0 -0.0438724 31.0092 -4.5908 -19.2487 -0.303821 -2.92438 35.9185 -11.7569 4.51375 23.6503 -0.0 -0.0 0.0 0.0 0.0 
2026.26 703.219 -1573.16 5.56907 60.3361 -8.09977 -0.323876 0.590208 2.73654 -0.319806 0.414947 2.76851 -0.296965 -0.190658 2.79292 -0.307761 0.252648 2.788 -8.06892 17.0832 -1.76577 -8.19713 33.1747 2.12493 -0.0 0.0 -0.0 -7.41948 20.9983 -8.39347 6.66973 -17.6387 64.4597 2.58942 -52.0516 1.26455 -6.54594 -0.276108 0.789486 0.105275 -3.30499 -0.690301 -0.0 0.0 -0.0 13.1174 26.3546 -25.906 -16.7201 19.4914 -68.5354 0.360699 10.1309 -0.0319723 15.3977 -0.28328 1.94062 -1.47461 -9.89737 5.35792 0.0 0.0 0.0 4.30272 28.037 -11.6055 -34.4658 -0.152726 5.20827 41.2459 14.6849 -5.03796 -30.6277 0.0 0.0 -0.0 0.0 -0.0 -1.51513 29.8825 -3.60117 -19.2742 -0.303568 -2.92828 37.9573 -9.53488 4.68973 23.6712 -0.0 -0.0 0.0 0.0 0.0 
2021.09 702.004 -1571.78 5.32529 61.6499 -8.05145 -0.287122 0.483352 2.86976 -0.282591 0.299841 2.89467 -0.264614 -0.328754 2.89153 -0.276257 0.131836 2.90716 -8.63206 17.884 -0.738917 -8.86663 34.0407 3.52395 -0.0 0.0 -0.0 -7.20927 20.0861 -8.37253 5.0829 -17.5853 65.8648 2.50638 -51.1431 1.19947 -6.84233 -0.290733 0.824453 0.0422499 -2.71437 -0.863849 -0.0 0.0 -0.0 13.1625 26.4654 -25.9969 -15.5867 19.6827 -68.1633 0.406239 11.3784 -0.0404708 15.4618 -0.283362 1.94881 -1.61881 -10.1271 6.17938 0.0 0.0 0.0 6.58085 28.158 -11.9399 -36.6777 -0.269043 5.52755 41.2341 13.6884 -5.02261 -30.781 0.0 0.0 -0.0 0.0 -0.0 -2.37485 29.0883 -2.72324 -19.2129 -0.304174 -2.91889 38.4198 -7.13302 4.72113 24.5447 -0.0 -0.0 0.0 0.0 0.0 
2018.98 702.276 -1572.89 4.65128 62.3891 -8.0611 -0.27815 0.587817 2.86553 -0.273673 0.404363 2.89709 -0.250269 -0.226328 2.91639 -0.26206 0.236902 2.91555 -10.6979 17.5826 0.387794 -11.1976 32.9781 5.21426 -0.0 0.0 -0.0 -7.11164 20.5974 -8.05934 4.30921 -16.1237 66.4733 2.67803 -52.9819 1.33487 -7.00182 -0.298678 0.843238 -0.120418 -2.10111 -1.69598 -0.0 0.0 -0.0 13.0564 25.5465 -25.8602 -14.2389 19.7008 -67.9863 0.435504 12.1744 -0.0464438 15.8427 -0.28366 1.99745 -1.75799 -10.2052 7.03935 0.0 0.0 0.0 8.43263 28.3943 -11.8902 -37.8829 -0.337599 5.6996 41.4767 13.0586 -5.03524 -30.7421 0.0 0.0 -0.0 0.0 -0.0 -2.64263 27.7782 -2.02142 -19.3425 -0.302882 -2.93873 38.2828 -6.50579 4.70728 22.7461 -0.0 -0.0 0.0 0.0 0.0 
2013.79 698.468 -1576.48 4.05834 63.8751 -7.52314 -0.218176 0.418527 2.91842 -0.213468 0.232055 2.93911 -0.198837 -0.401244 2.92084 -0.210736 0.0648764 2.94754 -10.731 17.8408 -0.530063 -11.2734 34.0687 4.43293 -0.0 0.0 -0.0 -7.13087 21.4737 -7.80591 3.48736 -15.5485 67.0941 2.57249 -51.8694 1.25122 -7.95014 -0.346997 0.954477 -0.0945072 -1.45024 -1.24567 -0.0 0.0 -0.0 13.1929 25.9368 -26.1308 -13.2343 19.6219 -67.9252 0.454488 12.6882 -0.0505305 16.0287 -0.283688 2.02122 -1.82374 -10.8577 7.15219 0.0 0.0 0.0 9.93126 26.1897 -12.0616 -38.635 -0.382221 5.80625 41.2878 12.2211 -5.009 -31.1177 0.0 0.0 -0.0 0.0 -0.0 -3.37962 27.7459 -2.03033 -17.7345 -0.315726 -2.69235 39.5263 -7.02598 4.81949 22.6931 -0.0 -0.0 0.0 0.0 0.0 
2009.92 694.29 -1578.17 3.90642 64.9466 -7.77395 -0.192063 0.360926 2.95965 -0.187206 0.171949 2.9766 -0.1756 -0.466864 2.94481 -0.187701 0.00385861 2.98156 -11.5635 17.0337 -0.400411 -12.16 32.5403 4.57595 -0.0 0.0 -0.0 -6.78285 21.5739 -7.25843 2.20374 -13.9232 67.3099 2.45435 -50.5551 1.15913 -8.44969 -0.37319 1.01275 -0.375559 -0.500898 -2.72326 -0.0 0.0 -0.0 13.2752 26.4152 -26.264 -11.2763 20.0233 -67.7986 0.524165 14.5559 -0.0669427 16.178 -0.283654 2.04028 -1.79454 -10.6003 7.0871 0.0 0.0 0.0 11.8401 24.8304 -12.7786 -40.5185 -0.500084 6.07071 40.8577 10.3375 -4.95368 -31.7257 0.0 0.0 -0.0 0.0 -0.0 -4.40149 28.3108 -1.47709 -16.8776 -0.319744 -2.56094 40.6006 -4.29743 4.90964 21.8008 -0.0 -0.0 0.0 0.0 0.0 
1999.17 695.293 -1577.33 3.89323 65.8883 -7.94639 -0.0677672 0.394047 3.01795 -0.062723 0.201299 3.03689 -0.0494014 -0.444389 3.01096 -0.0620498 0.0364839 3.04332 -11.1547 16.2492 -1.7136 -11.6589 31.8593 2.94031 -0.0 0.0 -0.0 -6.21731 22.514 -6.14793 0.562756 -12.0777 68.198 2.28359 -48.5166 1.02919 -9.64658 -0.438013 1.15145 -0.627955 0.812185 -3.84484 -0.0 0.0 -0.0 13.2621 26.0178 -26.2816 -9.48979 20.0222 -67.7228 0.5817 16.0749 -0.0821408 16.3521 -0.283553 2.06251 -1.8266 -10.6834 7.25379 0.0 0.0 0.0 13.003 21.7335 -12.0321 -43.0208 -0.670048 6.4159 40.7246 9.42206 -4.93535 -32.2096 0.0 0.0 -0.0 0.0 -0.0 -5.62492 28.6008 -0.81553 -15.3366 -0.322025 -2.32453 40.5112 -4.5614 4.90184 19.6652 -0.0 -0.0 0.0 0.0 0.0 
1993.21 698.191 -1576.39 3.32311 65.4567 -7.58737 0.0445116 0.490919 3.08488 0.0497576 0.293722 3.10984 0.0684411 -0.362955 3.10253 0.0550341 0.13134 3.1209 -10.5126 15.9737 -2.84 -10.9203 32.0253 1.56713 -0.0 0.0 -0.0 -5.82631 23.422 -5.3281 -1.62216 -9.25193 68.7249 2.08922 -45.978 0.886428 -10.7175 -0.498466 1.27439 -0.714226 1.33272 -4.19448 -0.0 0.0 -0.0 13.3428 26.2124 -26.4453 -8.29215 20.0653 -67.9432 0.634541 17.4498 -0.0973816 16.3492 -0.283555 2.06214 -1.83963 -10.4471 7.4505 0.0 0.0 0.0 14.6356 19.3122 -11.3723 -44.1158 -0.749156 6.56461 40.6599 9.28546 -4.92887 -32.916 0.0 0.0 -0.0 0.0 -0.0 -6.80828 29.0518 -0.0807842 -14.8868 -0.321491 -2.25551 39.9521 -6.06106 4.85453 18.182 -0.0 -0.0 0.0 0.0 0.0 
1984.39 695.397 -1576.83 2.68898 66.5928 -7.1977 0.203898 0.413354 3.1811 0.209503 0.210201 3.20093 0.22378 -0.45521 3.17538 0.209715 0.0517277 3.2074 -10.317 16.4876 -2.85465 -10.7293 32.9922 1.64354 -0.0 0.0 -0.0 -5.67898 23.3057 -5.15407 -3.67219 -8.61973 69.494 1.83314 -42.238 0.708099 -10.7378 -0.499636 1.27671 -0.73563 2.11955 -3.99425 -0.0 0.0 -0.0 13.2991 26.2495 -26.3396 -6.19487 20.2464 -68.1345 0.719215 19.6099 -0.124295 16.8709 -0.282849 2.12878 -1.85393 -10.348 7.5901 0.0 0.0 0.0 15.6506 19.7284 -10.565 -42.2014 -0.612726 6.30367 40.4502 9.28545 -4.91075 -33.8293 0.0 0.0 -0.0 0.0 -0.0 -7.60594 29.3091 0.221762 -14.5958 -0.320858 -2.21088 40.5911 -6.05528 4.90958 16.6972 -0.0 -0.0 0.0 0.0 0.0 
1973.7 689.307 -1579.6 0.623838 66.0482 -5.23923 0.433707 0.622129 3.19823 0.439301 0.417465 3.23129 0.465336 -0.244656 3.24893 0.45071 0.271244 3.24682 -9.28625 16.7827 -3.59038 -9.55884 33.9659 0.66162 -0.0 0.0 -0.0 -5.92503 23.4487 -5.45905 -6.44892 -7.05053 70.1115 1.72855 -40.5689 0.638918 -10.4147 -0.481137 1.23973 -0.692153 2.20731 -3.66692 -0.0 0.0 -0.0 13.3187 26.2902 -26.38 -3.75272 20.3994 -68.1211 0.754556 20.4949 -0.136413 17.3544 -0.281653 2.19052 -1.79773 -9.11683 7.81303 0.0 0.0 0.0 16.4661 18.9104 -11.6154 -40.5826 -0.504247 6.07964 40.7879 7.88222 -4.93208 -34.8752 0.0 0.0 -0.0 0.0 -0.0 -7.98911 29.6756 0.386752 -12.6363 -0.310689 -1.91041 41.5908 -5.71549 4.99336 16.3624 -0.0 -0.0 0.0 0.0 0.0 
